<?xml version="1.0" standalone="no"?>
<!DOCTYPE svg PUBLIC "-//W3C//DTD SVG 20010904//EN"
 "http://www.w3.org/TR/2001/REC-SVG-20010904/DTD/svg10.dtd">
<svg version="1.0" xmlns="http://www.w3.org/2000/svg"
 width="1200.000000pt" height="1200.000000pt" viewBox="0 0 1200.000000 1200.000000"
 preserveAspectRatio="xMidYMid meet">
<metadata>
Created by potrace 1.11, written by Peter Selinger 2001-2013
</metadata>
<g transform="translate(0.000000,1200.000000) scale(0.100000,-0.100000)"
fill="#000000" stroke="none">
<path d="M0 6000 l0 -6000 6000 0 6000 0 0 6000 0 6000 -6000 0 -6000 0 0
-6000z m6174 3384 c429 -109 631 -607 397 -980 -23 -36 -41 -70 -41 -75 0 -10
47 -93 238 -424 41 -71 114 -197 162 -280 307 -532 422 -731 565 -980 294
-511 495 -859 637 -1105 140 -242 604 -1047 720 -1250 56 -96 122 -211 148
-255 26 -44 55 -94 63 -111 l16 -32 88 5 c309 17 593 -195 669 -497 23 -90 15
-280 -15 -365 -33 -93 -93 -184 -168 -256 -80 -77 -165 -126 -282 -164 -199
-63 -445 -2 -611 152 -61 56 -134 155 -153 206 -6 16 -139 17 -2605 17 l-2598
0 -21 -43 c-75 -154 -230 -279 -415 -335 -69 -20 -231 -27 -283 -12 -179 53
-279 111 -374 217 -63 70 -126 195 -146 289 -76 357 153 706 510 780 72 15
175 15 267 2 17 -3 52 56 1188 2022 163 283 538 931 832 1440 294 509 540 935
547 948 11 21 8 30 -33 90 -181 267 -137 627 105 845 69 63 188 128 279 151
75 20 237 20 314 0z"/>
<path d="M6135 8108 c-22 -5 -93 -8 -158 -5 l-117 4 -102 -176 c-56 -97 -125
-216 -154 -266 -29 -49 -177 -306 -329 -570 -279 -484 -360 -623 -445 -770
-70 -121 -144 -248 -425 -735 -281 -487 -355 -614 -425 -735 -83 -143 -165
-284 -390 -675 -122 -212 -237 -411 -256 -443 -19 -32 -34 -61 -34 -64 0 -3
14 -22 30 -43 32 -40 93 -164 105 -213 l7 -27 662 0 c363 0 1514 -3 2557 -7
l1895 -6 23 69 c25 78 86 187 125 223 14 14 26 30 26 36 0 7 -23 52 -51 101
-89 155 -274 475 -334 579 -32 55 -91 156 -130 225 -39 69 -105 184 -147 255
-41 72 -162 281 -268 465 -106 184 -227 394 -268 465 -42 72 -108 186 -147
255 -39 69 -96 168 -127 220 -87 150 -234 406 -375 650 -210 365 -401 696
-481 835 -41 72 -105 181 -141 244 -36 63 -70 115 -76 117 -5 1 -28 -3 -50 -8z"/>
</g>
</svg>
